<?xml version="1.0" standalone="no"?>
<!DOCTYPE svg PUBLIC "-//W3C//DTD SVG 20010904//EN"
 "http://www.w3.org/TR/2001/REC-SVG-20010904/DTD/svg10.dtd">
<svg version="1.0" xmlns="http://www.w3.org/2000/svg"
 width="512.000000pt" height="512.000000pt" viewBox="0 0 512.000000 512.000000"
 preserveAspectRatio="xMidYMid meet">
<metadata>
Created by potrace 1.11, written by Peter Selinger 2001-2013
</metadata>
<g transform="translate(0.000000,512.000000) scale(0.100000,-0.100000)"
fill="#000000" stroke="none">
<path d="M2137 5004 c-1 -2 -14 -5 -27 -7 -14 -2 -38 -9 -53 -15 -16 -7 -31
-12 -34 -12 -13 0 -144 -95 -185 -132 -10 -10 -20 -18 -23 -18 -6 0 -93 -92
-123 -130 -46 -59 -117 -249 -137 -365 -22 -132 -22 -492 1 -620 14 -83 70
-212 104 -245 3 -3 25 -39 50 -80 53 -91 90 -140 152 -201 38 -37 46 -52 43
-75 -6 -51 -22 -240 -30 -364 -7 -96 -12 -110 -38 -111 -12 0 -29 -2 -37 -4
-15 -3 -131 -28 -140 -30 -28 -7 -79 -37 -95 -56 -28 -33 -54 -125 -51 -179 5
-83 49 -190 78 -190 6 0 9 -3 5 -6 -11 -11 48 -52 93 -64 25 -6 52 -15 60 -19
17 -8 54 -7 146 4 61 7 61 7 72 -21 6 -16 20 -42 31 -59 l19 -30 -23 -91 c-30
-120 -37 -188 -37 -369 0 -129 4 -165 27 -255 14 -57 27 -109 28 -114 1 -5 14
-34 30 -64 l27 -54 -30 -54 c-29 -50 -71 -192 -84 -280 -18 -124 -22 -163 -16
-180 4 -10 4 -32 0 -48 -8 -37 3 -82 37 -156 28 -60 44 -77 118 -124 81 -52
102 -59 190 -59 78 0 105 6 179 42 78 38 132 91 167 166 24 52 28 76 33 180 6
132 22 199 59 248 l25 33 163 -2 c119 -1 173 2 198 12 18 8 37 11 42 8 5 -3 9
0 9 6 0 13 84 4 88 -10 2 -6 8 -8 13 -4 5 3 9 -2 9 -11 0 -8 6 -18 14 -21 8
-3 12 -12 9 -20 -3 -8 -1 -14 4 -14 9 0 8 -177 -1 -325 -6 -97 9 -126 91 -175
107 -65 201 -77 338 -45 39 9 77 18 85 20 8 2 26 8 40 13 14 5 29 10 33 10 4
1 14 7 22 14 7 7 29 24 49 38 19 14 46 48 61 76 24 45 26 61 27 160 0 71 -6
135 -17 184 -19 79 -77 225 -101 251 -12 13 -10 23 20 80 27 52 42 95 61 179
26 110 22 299 -10 430 -21 88 -95 259 -117 268 -5 2 -8 9 -8 16 0 7 -15 32
-33 55 -22 28 -34 55 -35 77 -1 19 0 34 1 35 1 0 31 2 67 5 166 13 324 97 371
199 37 80 20 148 -59 243 -70 84 -107 103 -199 108 -67 3 -100 7 -201 28 -21
4 -28 22 -31 79 -4 105 -75 310 -116 339 -6 5 -6 10 0 16 6 4 37 30 70 57 86
70 154 138 155 153 0 6 4 12 9 12 11 0 111 201 111 224 0 9 5 16 12 16 6 0 9
3 5 6 -3 3 -1 18 5 33 28 73 43 342 24 430 -58 261 -238 482 -511 624 -178 94
-480 187 -880 273 -68 15 -83 18 -155 28 -19 3 -51 7 -70 10 -152 22 -193 27
-229 25 -23 -2 -43 -4 -44 -5z"/>
</g>
</svg>
